<svg width="32" height="32" viewBox="0 0 32 32" fill="none" xmlns="http://www.w3.org/2000/svg">
<path fill-rule="evenodd" clip-rule="evenodd" d="M18.9569 7.27842C18.7543 7.37975 17.7889 8.31575 14.7663 11.3451C11.1929 14.9264 10.8329 15.3038 10.7529 15.5424C10.6436 15.8375 10.6436 16.162 10.7529 16.4571C10.8329 16.6958 11.1929 17.0731 14.7663 20.6544C17.7889 23.6838 18.7543 24.6198 18.9569 24.7211C19.1165 24.799 19.2901 24.8443 19.4674 24.8542C19.6447 24.8642 19.8223 24.8386 19.9896 24.779C20.1569 24.7193 20.3106 24.6269 20.4417 24.5071C20.5728 24.3872 20.6786 24.2424 20.7529 24.0811C20.8863 23.7878 20.8823 23.2958 20.7423 22.9864C20.6596 22.8024 19.8476 21.9584 17.2649 19.3731L13.8943 15.9998L17.2649 12.6264C19.8476 10.0411 20.6596 9.19709 20.7423 9.01309C20.8823 8.70375 20.8863 8.21175 20.7529 7.91842C20.6786 7.75712 20.5728 7.6123 20.4417 7.49245C20.3106 7.37261 20.1569 7.28017 19.9896 7.22055C19.8223 7.16093 19.6447 7.13534 19.4674 7.14528C19.2901 7.15522 19.1165 7.20048 18.9569 7.27842Z" fill="#14161B"/>
</svg>
