<svg width="176" height="83" viewBox="0 0 176 83" fill="none" xmlns="http://www.w3.org/2000/svg">
<path d="M52.4522 33H44.1322V18.64C44.1322 17.72 43.8922 16.96 43.4522 16.32C42.9722 15.72 42.2922 15.4 41.4122 15.4C40.9722 15.4 40.6122 15.52 40.2922 15.68C39.9722 15.92 39.6922 16.16 39.4922 16.44C39.2522 16.76 39.0922 17.12 38.9722 17.48C38.8122 17.88 38.6922 18.28 38.6522 18.64V33H30.3322V9.28002H37.4522L38.0922 10.96C38.8922 10.08 39.8122 9.48002 40.8522 9.08002C41.8922 8.72002 42.8922 8.52002 43.9322 8.48002C45.1322 8.48002 46.2922 8.72002 47.4522 9.28002C48.5722 9.84002 49.5322 10.68 50.3722 11.72C51.3322 10.52 52.4922 9.64002 53.8522 9.16002C55.1322 8.68002 56.4122 8.48002 57.6922 8.48002C58.7722 8.52002 59.8522 8.76002 60.8922 9.20002C61.8922 9.68002 62.8122 10.36 63.6122 11.2C64.4122 12.08 65.0522 13.16 65.5322 14.36C66.0122 15.6 66.2522 16.96 66.2522 18.48V33H57.9322V18.64C57.9322 17.72 57.6922 16.96 57.2522 16.32C56.7722 15.72 56.0922 15.4 55.2122 15.4C54.3722 15.4 53.7322 15.68 53.3322 16.2C52.8522 16.76 52.5722 17.44 52.4522 18.24V33ZM80.1757 9.28002V33H71.8557V9.28002H80.1757ZM80.1757 2.28882e-05V6.88002H71.8557V2.28882e-05H80.1757ZM93.5219 10.96C94.0019 10.6 94.5219 10.24 95.0819 9.92002C95.6419 9.64002 96.2019 9.40002 96.8419 9.16002C97.4019 8.96002 98.0019 8.80002 98.6419 8.64002C99.2019 8.56002 99.7619 8.48002 100.322 8.48002C101.922 8.48002 103.402 8.72002 104.762 9.16002C106.122 9.64002 107.282 10.32 108.322 11.16C109.282 12.04 110.082 13.04 110.642 14.2C111.202 15.4 111.482 16.68 111.482 18.08V33H103.162V20.64C103.162 19.68 103.042 18.84 102.802 18.12C102.562 17.48 102.242 16.92 101.842 16.48C101.442 16.08 100.962 15.8 100.482 15.6C99.9219 15.44 99.4019 15.36 98.8819 15.36C97.6819 15.36 96.6419 15.72 95.8019 16.44C94.9219 17.2 94.3219 18.16 94.0819 19.36V33H85.7619V9.28002H92.8819L93.5219 10.96ZM135.749 1.12002H144.029V33H136.909L136.269 31.08C135.149 32 133.869 32.68 132.509 33.16C131.069 33.6 129.629 33.8 128.149 33.8C126.269 33.76 124.549 33.44 123.029 32.8C121.469 32.16 120.149 31.28 119.029 30.16C117.909 29.04 117.029 27.72 116.429 26.2C115.789 24.68 115.509 23.04 115.509 21.2C115.509 19.36 115.829 17.64 116.509 16.04C117.149 14.52 118.029 13.16 119.189 12.04C120.309 10.92 121.629 10.04 123.189 9.40002C124.709 8.80002 126.349 8.48002 128.109 8.48002C129.549 8.48002 130.909 8.68002 132.189 9.00002C133.429 9.36002 134.629 9.92002 135.749 10.64V1.12002ZM129.389 26.92C131.069 26.92 132.389 26.4 133.429 25.32C134.429 24.28 134.949 22.88 134.949 21.2C134.949 19.44 134.429 18.04 133.429 16.96C132.389 15.92 131.069 15.4 129.389 15.4C127.709 15.4 126.349 15.92 125.349 16.96C124.309 18.04 123.829 19.44 123.829 21.2C123.829 22.88 124.309 24.28 125.349 25.32C126.349 26.4 127.709 26.92 129.389 26.92ZM7.6402 59.36C8.2402 58.68 9.0002 58.16 9.9602 57.8C10.8802 57.48 11.8402 57.28 12.8802 57.28H18.0802L16.6402 64.16H11.8402C11.3602 64.16 10.8802 64.28 10.4802 64.48C10.0402 64.72 9.6802 65 9.3602 65.36C9.0402 65.76 8.7602 66.2 8.6002 66.68C8.4002 67.2 8.3202 67.76 8.3202 68.32V81H0.000195324V57.28H7.1202L7.6402 59.36ZM19.9814 69.2C19.9814 67.2 20.3414 65.36 21.1414 63.72C21.8614 62.12 22.9014 60.72 24.2214 59.56C25.5014 58.44 26.9814 57.6 28.7414 56.96C30.4214 56.4 32.2614 56.08 34.2214 56.08C36.1814 56.08 38.0214 56.4 39.7814 56.96C41.5014 57.6 43.0214 58.44 44.3014 59.56C45.5814 60.68 46.5814 62.08 47.3414 63.68C48.0614 65.32 48.4614 67.16 48.4614 69.16C48.4614 71.16 48.0614 72.96 47.3414 74.56C46.5814 76.2 45.5814 77.56 44.3014 78.72C43.0214 79.84 41.5014 80.68 39.7814 81.32C38.0214 81.88 36.1814 82.2 34.2214 82.2C32.2614 82.2 30.4214 81.88 28.7414 81.32C26.9814 80.68 25.5014 79.84 24.2214 78.72C22.9014 77.6 21.8614 76.24 21.1414 74.6C20.3414 73 19.9814 71.2 19.9814 69.2ZM34.2214 75.36C35.1014 75.36 35.9414 75.2 36.7014 74.88C37.4214 74.56 38.0614 74.12 38.5814 73.56C39.0614 73.04 39.4614 72.4 39.7814 71.64C40.0214 70.92 40.1814 70.08 40.1814 69.2C40.1814 68.32 40.0214 67.48 39.7814 66.68C39.4614 65.96 39.0614 65.28 38.5814 64.72C38.0614 64.16 37.4214 63.72 36.7014 63.4C35.9414 63.12 35.1014 62.96 34.2214 62.96C33.2614 62.96 32.4614 63.12 31.7414 63.44C30.9814 63.76 30.3414 64.2 29.8614 64.76C29.3014 65.32 28.9014 66 28.6614 66.72C28.3814 67.52 28.2614 68.32 28.2614 69.2C28.2614 70.08 28.3814 70.92 28.6614 71.64C28.9014 72.4 29.3014 73.04 29.8614 73.56C30.3414 74.12 30.9814 74.56 31.7414 74.88C32.4614 75.2 33.2614 75.36 34.2214 75.36ZM70.3821 79.32C69.4221 80.08 68.3021 80.68 67.1021 81.16C65.8221 81.56 64.6621 81.8 63.5821 81.8C61.9821 81.8 60.5021 81.56 59.1421 81.12C57.7821 80.64 56.5821 79.96 55.6221 79.12C54.5821 78.24 53.8221 77.24 53.2621 76.08C52.7021 74.92 52.4221 73.64 52.4221 72.2V57.28H60.7421V69.64C60.7421 70.64 60.8621 71.48 61.1021 72.12C61.3421 72.84 61.6621 73.36 62.0621 73.76C62.4621 74.2 62.9021 74.48 63.4621 74.64C63.9421 74.84 64.4621 74.92 65.0221 74.92C66.2221 74.92 67.2621 74.56 68.1421 73.8C68.9821 73.08 69.5421 72.12 69.8221 70.92V57.28H78.1421V81H71.0221L70.3821 79.32ZM94.3902 57.28H99.8302V64.16H94.3902V72C94.3902 72.64 94.5502 73.16 94.9502 73.52C95.3102 73.92 95.8302 74.12 96.5102 74.12H100.23V81H93.4302C92.3902 81 91.4702 80.84 90.5902 80.52C89.7102 80.16 88.9102 79.68 88.2702 79.08C87.5502 78.44 87.0302 77.72 86.6702 76.88C86.2702 76 86.0702 75.04 86.0702 73.92V64.16H81.7502V57.28H86.0702V49.12H94.3902V57.28ZM112.148 57.28V81H103.828V57.28H112.148ZM112.148 48V54.88H103.828V48H112.148ZM125.495 58.96C125.975 58.6 126.495 58.24 127.055 57.92C127.615 57.64 128.175 57.4 128.815 57.16C129.375 56.96 129.975 56.8 130.615 56.64C131.175 56.56 131.735 56.48 132.295 56.48C133.895 56.48 135.375 56.72 136.735 57.16C138.095 57.64 139.255 58.32 140.295 59.16C141.255 60.04 142.055 61.04 142.615 62.2C143.175 63.4 143.455 64.68 143.455 66.08V81H135.135V68.64C135.135 67.68 135.015 66.84 134.775 66.12C134.535 65.48 134.215 64.92 133.815 64.48C133.415 64.08 132.935 63.8 132.455 63.6C131.895 63.44 131.375 63.36 130.855 63.36C129.655 63.36 128.615 63.72 127.775 64.44C126.895 65.2 126.295 66.16 126.055 67.36V81H117.735V57.28H124.855L125.495 58.96ZM156.281 73.44C157.481 74.96 159.201 75.72 161.521 75.72C163.121 75.72 164.481 75.48 165.641 74.96C166.761 74.48 167.841 73.72 168.881 72.6L174.281 76.6C172.761 78.36 171.001 79.72 169.081 80.72C167.081 81.68 164.801 82.2 162.161 82.2C160.001 82.2 158.001 81.88 156.241 81.32C154.441 80.68 152.881 79.84 151.601 78.72C150.281 77.6 149.281 76.24 148.561 74.6C147.841 73 147.481 71.2 147.481 69.16C147.481 67.2 147.841 65.4 148.601 63.76C149.321 62.16 150.321 60.8 151.601 59.64C152.881 58.52 154.361 57.64 156.081 57C157.761 56.4 159.601 56.08 161.561 56.08C163.561 56.08 165.401 56.4 167.081 56.96C168.761 57.6 170.201 58.44 171.401 59.56C172.601 60.68 173.521 62.08 174.241 63.68C174.881 65.32 175.241 67.16 175.241 69.2L156.281 73.44ZM161.841 62.48C160.001 62.48 158.521 62.92 157.361 63.8C156.161 64.68 155.441 65.92 155.121 67.48L166.801 64.88C166.241 64.2 165.561 63.64 164.761 63.16C163.921 62.72 162.961 62.48 161.841 62.48Z" fill="black"/>
</svg>
