<svg width="135" height="135" viewBox="0 0 135 135" fill="none" xmlns="http://www.w3.org/2000/svg">
<g clip-path="url(#clip0_682_805)">
<path d="M92.5928 100.693C87.6658 105.583 75.6222 115.43 66.8633 115.693C58.832 115.934 52.1507 109.136 49.1829 104.853C48.914 104.465 48.6756 104.098 48.4694 103.758C47.756 102.664 47.8125 99.4885 48.4694 97.8462C49.1264 96.2039 50.9876 94.7806 58.7612 85.9121C64.9801 78.8173 70.2907 83.8409 72.6661 86.788C73.3563 87.3445 74.6588 88.715 79.1258 88.5398C84.7097 88.3208 96.9722 69.5985 99.9284 64.2337C102.885 58.8688 96.9722 57.5549 93.4686 53.066C89.9651 48.577 92.5928 45.0734 100.914 36.2049C109.235 27.3365 111.458 28.8783 115.914 32.9203C119.807 36.4521 125.11 47.3726 122.045 61.8249C119.592 73.3868 101.388 92.5543 92.5928 100.693Z" fill="url(#paint0_linear_682_805)"/>
<path d="M22.0236 75.7059C9.86032 63.0137 10.289 42.8644 22.9811 30.7011V30.7011C35.6733 18.5378 55.8226 18.9664 67.9859 31.6586L88.3953 52.9552L42.433 97.0025L22.0236 75.7059Z" fill="url(#paint1_linear_682_805)"/>
<path d="M46.4219 96.1199C45.1956 97.8717 45.2178 99.5152 45.1083 100.647C44.4879 98.2743 34.3788 90.7927 37.0062 79.5873C39.5611 68.6916 44.1592 60.938 46.4219 58.0183C55.2539 48.274 75.3703 28.0627 85.1803 25.1722C97.4429 21.5591 109.925 27.6904 107.297 27.6904C106.145 27.6904 104.049 29.5152 103.136 30.3181C100.399 33.0188 94.4868 38.9895 92.735 41.2668C89.8055 45.0751 89.4503 45.3098 88.7934 48.8214C88.4917 50.4342 89.6665 53.5107 90.3896 54.2338L65.8011 79.5873C65.2902 79.6238 64.1593 79.406 62.407 80.1348C60.9946 80.7221 60.2178 80.9388 58.137 82.8719C54.7429 86.558 47.6482 94.3681 46.4219 96.1199Z" fill="url(#paint2_linear_682_805)"/>
</g>
<defs>
<linearGradient id="paint0_linear_682_805" x1="85.4776" y1="30.0827" x2="85.4776" y2="115.699" gradientUnits="userSpaceOnUse">
<stop stop-color="#FF6E61"/>
<stop offset="1" stop-color="#FCA963"/>
</linearGradient>
<linearGradient id="paint1_linear_682_805" x1="54.9625" y1="27.0713" x2="26.7149" y2="75.9025" gradientUnits="userSpaceOnUse">
<stop stop-color="#F9765A"/>
<stop offset="1" stop-color="#FF675C"/>
</linearGradient>
<linearGradient id="paint2_linear_682_805" x1="101.713" y1="26.8522" x2="44.78" y2="90.2452" gradientUnits="userSpaceOnUse">
<stop stop-color="#FCC260"/>
<stop offset="0.302885" stop-color="#FCA45C"/>
<stop offset="0.682692" stop-color="#FC7E5E"/>
<stop offset="0.995192" stop-color="#FE6D5E"/>
</linearGradient>
<clipPath id="clip0_682_805">
<rect width="134.5" height="134.5" fill="white"/>
</clipPath>
</defs>
</svg>
