<svg width="45" height="45" viewBox="0 0 45 45" fill="none" xmlns="http://www.w3.org/2000/svg">
<rect x="0.156818" y="0.156818" width="44.6864" height="44.6864" rx="22.3432" fill="white"/>
<rect x="0.156818" y="0.156818" width="44.6864" height="44.6864" rx="22.3432" stroke="#D9D9D9" stroke-width="0.313636"/>
<g clip-path="url(#clip0_682_855)">
<path d="M28.5842 30.3912C27.4853 31.482 24.799 33.6783 22.8453 33.7369C21.0539 33.7907 19.5637 32.2744 18.9017 31.3192C18.8418 31.2327 18.7886 31.1508 18.7426 31.075C18.5835 30.8308 18.5961 30.1226 18.7426 29.7563C18.8891 29.39 19.3043 29.0725 21.0382 27.0944C22.4253 25.5119 23.6098 26.6324 24.1396 27.2898C24.2936 27.4139 24.5841 27.7196 25.5805 27.6805C26.8259 27.6317 29.5611 23.4557 30.2204 22.2591C30.8798 21.0625 29.5611 20.7694 28.7796 19.7681C27.9981 18.7669 28.5842 17.9854 30.4402 16.0073C32.2962 14.0292 32.7921 14.3731 33.7859 15.2747C34.6543 16.0625 35.8372 18.4983 35.1535 21.7218C34.6064 24.3007 30.546 28.576 28.5842 30.3912Z" fill="url(#paint0_linear_682_855)"/>
<path d="M12.844 24.818C10.131 21.9871 10.2266 17.4928 13.0575 14.7798V14.7798C15.8885 12.0668 20.3828 12.1624 23.0958 14.9934L27.6481 19.7435L17.3962 29.5682L12.844 24.818Z" fill="url(#paint1_linear_682_855)"/>
<path d="M18.286 29.3712C18.0125 29.762 18.0175 30.1286 17.993 30.3809C17.8547 29.8518 15.5998 28.183 16.1859 25.6837C16.7557 23.2534 17.7813 21.524 18.286 20.8728C20.256 18.6993 24.7429 14.1912 26.931 13.5465C29.6662 12.7406 32.4503 14.1082 31.8641 14.1082C31.6071 14.1082 31.1396 14.5152 30.9361 14.6943C30.3255 15.2966 29.0068 16.6284 28.6161 17.1364C27.9627 17.9858 27.8834 18.0381 27.7369 18.8214C27.6696 19.1811 27.9317 19.8673 28.0929 20.0286L22.6085 25.6837C22.4946 25.6918 22.2423 25.6432 21.8515 25.8058C21.5364 25.9368 21.3632 25.9851 20.8991 26.4163C20.142 27.2385 18.5595 28.9805 18.286 29.3712Z" fill="url(#paint2_linear_682_855)"/>
</g>
<defs>
<linearGradient id="paint0_linear_682_855" x1="26.9972" y1="14.6418" x2="26.9972" y2="33.7383" gradientUnits="userSpaceOnUse">
<stop stop-color="#FF6E61"/>
<stop offset="1" stop-color="#FCA963"/>
</linearGradient>
<linearGradient id="paint1_linear_682_855" x1="20.1909" y1="13.9702" x2="13.8903" y2="24.8619" gradientUnits="userSpaceOnUse">
<stop stop-color="#F9765A"/>
<stop offset="1" stop-color="#FF675C"/>
</linearGradient>
<linearGradient id="paint2_linear_682_855" x1="30.6187" y1="13.9212" x2="17.9198" y2="28.0609" gradientUnits="userSpaceOnUse">
<stop stop-color="#FCC260"/>
<stop offset="0.302885" stop-color="#FCA45C"/>
<stop offset="0.682692" stop-color="#FC7E5E"/>
<stop offset="0.995192" stop-color="#FE6D5E"/>
</linearGradient>
<clipPath id="clip0_682_855">
<rect width="30" height="30" fill="white" transform="translate(7.93164 7.93188)"/>
</clipPath>
</defs>
</svg>
